<svg width="331" height="450" viewBox="0 0 331 450" fill="none" xmlns="http://www.w3.org/2000/svg">
<path d="M0 0H330.5V449.32H0V0Z" fill="#FFFCFC"/>
<path d="M157.504 253.791C155.072 254.084 152.113 254.23 148.627 254.23C138.871 254.23 131.034 252.312 125.116 248.474C119.227 244.606 115.375 239.025 113.558 231.73H106.132V224.26H112.46C112.372 223.293 112.328 222.297 112.328 221.271C112.328 220.686 112.357 219.865 112.416 218.811H106.132V211.384H113.427C115.155 203.913 118.978 198.2 124.896 194.245C130.844 190.29 138.739 188.312 148.583 188.312C152.04 188.312 154.926 188.591 157.24 189.147V202.067C155.043 201.687 152.274 201.496 148.934 201.496C144.452 201.496 140.643 202.346 137.509 204.045C134.374 205.715 132.03 208.161 130.477 211.384H153.812V218.811H128.5C128.412 219.602 128.368 220.407 128.368 221.228C128.368 222.399 128.427 223.41 128.544 224.26H153.812V231.73H130.829C132.382 234.777 134.681 237.106 137.728 238.718C140.775 240.3 144.423 241.091 148.671 241.091C152.772 241.091 155.717 240.944 157.504 240.651V253.791ZM198.283 254.714C191.018 254.714 185.1 252.81 180.529 249.001C175.959 245.192 173.615 240.373 173.498 234.543H188.132C188.513 236.857 189.655 238.732 191.56 240.168C193.464 241.574 195.749 242.277 198.415 242.277C201.374 242.277 203.791 241.34 205.666 239.465C207.541 237.59 208.479 235.114 208.479 232.038C208.479 228.903 207.526 226.369 205.622 224.436C203.747 222.473 201.33 221.491 198.371 221.491C194.123 221.491 190.9 223.234 188.703 226.721H174.509L177.497 189.587H219.685V202.155H189.934L188.747 216.877H189.582C192.277 212.541 196.76 210.373 203.029 210.373C209.035 210.373 213.972 212.38 217.839 216.394C221.735 220.378 223.684 225.461 223.684 231.643C223.684 238.527 221.354 244.094 216.696 248.342C212.038 252.59 205.9 254.714 198.283 254.714Z" fill="black"/>
</svg>
